<?xml version="1.0" encoding="UTF-8"?>
<svg id="Layer_1" xmlns="http://www.w3.org/2000/svg" version="1.1" xmlns:xlink="http://www.w3.org/1999/xlink" viewBox="0 0 2145 1458.3">
  <!-- Generator: Adobe Illustrator 29.2.0, SVG Export Plug-In . SVG Version: 2.1.0 Build 108)  -->
  <defs>
    <style>
      .st0 {
        fill: #738598;
      }

      .st1 {
        fill: #4c78ff;
      }

      .st2 {
        fill: #00bb5f;
      }

      .st3, .st4 {
        fill: #48aa48;
      }

      .st5 {
        fill: #fc4;
      }

      .st6 {
        fill: #c69c6d;
      }

      .st7 {
        fill: none;
      }

      .st8 {
        fill: #00663e;
      }

      .st9 {
        fill: #faf9f9;
      }

      .st4, .st10 {
        fill-rule: evenodd;
      }

      .st11 {
        fill: #ffda32;
      }

      .st12 {
        fill: #aaff6e;
      }

      .st13, .st10 {
        fill: #3c415e;
      }

      .st14 {
        fill: #333;
      }

      .st15 {
        isolation: isolate;
        opacity: .2;
      }

      .st16 {
        fill: #1a1a1a;
      }

      .st17 {
        fill: #a67c52;
      }

      .st18 {
        fill: #82ff44;
      }

      .st19 {
        clip-path: url(#clippath);
      }

      .st20 {
        fill: #ff666a;
      }
    </style>
    <clipPath id="clippath">
      <rect class="st7" x="811.1" y="640.8" width="636.7" height="326.3"/>
    </clipPath>
  </defs>
  <g>
    <ellipse class="st15" cx="1072.5" cy="1389" rx="1072.5" ry="69.3"/>
    <g>
      <g>
        <g>
          <path class="st10" d="M652.2,478.5l10-.4c0,1.9,0-3.8-1-17l-10,.8c.5,5.6.8,11.1,1,16.6Z"/>
          <path class="st10" d="M652.3,508.4l10.1.3c.2-5.7.3-11.3.2-17h-10.1c0,5.6,0,11.1-.2,16.7Z"/>
          <path class="st10" d="M650.2,538l10,1.2c.7-5.7,1.1-11.3,1.5-17l-10-.7c-.4,5.5-.9,11-1.5,16.5Z"/>
        </g>
        <g>
          <path class="st10" d="M638.4,390.4l9.6-2.9c-.8-2.8-1.7-5.5-2.6-8.2-.8-2.7-1.8-5.4-2.8-8.1l-9.5,3.4c.9,2.6,1.9,5.2,2.7,7.8.9,2.7,1.8,5.3,2.6,8Z"/>
          <path class="st10" d="M645.4,419.3l9.9-1.9c-.6-2.8-1.1-5.6-1.8-8.4-.6-2.8-1.2-5.6-2-8.3l-9.8,2.4c.7,2.7,1.3,12.9,1.9,15.6.8,2.7,1.3-2.1,1.8.6Z"/>
          <polygon class="st10" points="650 448.6 660 447.5 658.9 446.6 657.7 430.6 647.7 432.1 648.9 440.4 650 448.6"/>
        </g>
        <g>
          <path class="st10" d="M597.7,312.6l7.1-7.1-1.5-1.6-1.7-1.5-3.4-3c-1.1-1-2.3-1.9-3.5-2.8l-3.6-2.7-5.7,8.3,3.2,2.4c1.1.8,2.2,1.6,3.2,2.5l3,2.7,1.5,1.3,1.4,1.5Z"/>
          <path class="st10" d="M615.3,335.8l8.6-5.1c-1.6-2.5-3-5-4.7-7.4s-3.4-4.8-5.2-7.1l-8,6.2c1.6,2.2,3.2,4.4,4.8,6.6,1.6,2.2,3,4.5,4.5,6.8Z"/>
          <path class="st10" d="M628.4,362.2l9.3-3.9-3.5-7.9c-1.2-2.6-2.5-5.2-3.7-7.8l-9,4.5c1.2,2.5,2.5,4.9,3.6,7.4l3.3,7.7Z"/>
        </g>
        <g>
          <path class="st10" d="M517.3,290l-1.5-9.9c-5.8.8-11.4,2-17,3.3l2.4,9.8c5.3-1.3,10.7-2.5,16.1-3.2Z"/>
          <path class="st10" d="M546.4,288.8l.9-10c-1.5-.2-3-.2-4.4-.3l-4.4-.2c-1.5-.1-2.9,0-4.4.1l-4.4.2.6,10h4.1c1.4-.1,2.7-.3,4.1-.2h4.1c1.2.2,2.5.2,3.8.4Z"/>
          <path class="st10" d="M574.1,295.9l4.2-9.1c-1.3-.7-2.8-1.2-4.2-1.8l-4.2-1.6c-1.4-.5-2.9-.9-4.3-1.3-1.5-.4-2.9-.9-4.4-1.2l-2.3,9.8c1.3.3,2.6.7,3.9,1.1,1.3.4,2.6.7,3.8,1.1l3.7,1.4c1.4.5,2.7,1,3.8,1.6Z"/>
        </g>
        <g>
          <path class="st10" d="M433.1,318.6l-4.3-9.1c-5.1,2.4-10.2,4.9-15.2,7.4l4.5,9c5-2.4,9.9-4.9,15-7.3Z"/>
          <path class="st10" d="M460.4,306.6l-3.8-9.3-7.9,3.3c-2.6,1.1-5.2,2.3-7.8,3.4l4.1,9.2c2.5-1.1,5.1-2.3,7.6-3.3l7.8-3.3Z"/>
          <path class="st10" d="M488.3,296.7l-2.9-9.6c-5.5,1.6-10.9,3.5-16.3,5.4l3.4,9.5c5.3-1.9,10.5-3.8,15.8-5.3Z"/>
        </g>
        <g>
          <polygon class="st10" points="353.9 361.5 348.8 352.8 341.6 357.1 334.4 361.5 339.6 370.1 346.7 365.8 353.9 361.5"/>
          <path class="st10" d="M379.9,346.4l-4.9-8.8c-4.9,2.7-9.8,5.6-14.6,8.4l5.1,8.7c4.7-2.7,9.5-5.6,14.4-8.3Z"/>
          <path class="st10" d="M406.1,332.1l-4.7-8.9c-5,2.6-9.9,5.3-14.9,8l4.8,8.8c5-2.6,9.9-5.3,14.8-7.9Z"/>
        </g>
        <g>
          <polygon class="st10" points="276.3 407.8 271.3 399.1 256.8 407.3 261.6 416.1 276.3 407.8"/>
          <polygon class="st10" points="302.3 392.6 297.2 384 282.8 392.4 287.8 401.1 302.3 392.6"/>
          <path class="st10" d="M328,377.1l-5.2-8.6c-4.8,2.9-9.5,5.8-14.3,8.7l5.2,8.6c4.8-2.9,9.5-5.8,14.3-8.7Z"/>
        </g>
        <g>
          <path class="st10" d="M195.6,449.3l-4-9.2c-2.5,1.1-5.1,2.1-7.6,3.2l-3.8,1.6-3.8,1.5,3.6,9.4,4-1.5,3.9-1.6c2.5-1.3,5.2-2.3,7.7-3.4Z"/>
          <polygon class="st10" points="223 436.5 218.6 427.4 211.1 431.1 203.6 434.6 207.8 443.8 215.5 440.2 223 436.5"/>
          <path class="st10" d="M249.8,422.6l-4.8-8.8c-4.9,2.6-9.8,5.3-14.7,7.8l4.6,8.9c5-2.6,9.9-5.3,14.9-7.9Z"/>
        </g>
        <g>
          <path class="st10" d="M106.5,468.6l1.5-9.9c-2.6-.2-4.9-1-7.4-1.5-1.2-.3-2.4-.8-3.5-1.2l-1.8-.6c-.6-.2-1.1-.5-1.7-.8l-4.1,9.2c.7.3,1.3.6,2,.9l2.1.7c1.4.5,2.8,1,4.2,1.4,2.9.7,5.8,1.5,8.7,1.8Z"/>
          <path class="st10" d="M137.5,467.8l-1.6-9.9c-2.6.4-5.3.9-7.9,1l-3.9.3c-1.3.1-2.6.1-3.9.1l.2,10.1c1.4,0,2.9,0,4.3-.1l4.3-.4c2.9-.1,5.7-.7,8.5-1.1Z"/>
          <path class="st10" d="M167.1,460.3l-3.2-9.5c-2.6.9-5.2,1.6-7.8,2.4s-5.2,1.5-7.8,2.1l2.4,9.8c2.8-.7,5.5-1.4,8.2-2.2,2.8-.9,5.5-1.7,8.2-2.6Z"/>
        </g>
        <g>
          <path class="st10" d="M46.3,403.3l10-1c-.6-4.8-.2-9.8.9-14.5l-9.8-2.3c-1.3,5.8-1.8,11.9-1.1,17.8Z"/>
          <path class="st10" d="M56.9,432.8l8.7-5.1c-2.7-4.5-5-9.2-6.6-14l-9.5,3.3c1.9,5.6,4.5,10.9,7.4,15.8Z"/>
          <path class="st10" d="M77.2,456.5l6.1-8-1.5-1.1-1.4-1.3c-.9-.8-1.9-1.7-2.8-2.5l-2.6-2.8c-.4-.5-.9-.9-1.3-1.4l-1.2-1.5-7.9,6.3,1.3,1.7c.5.6,1,1.1,1.5,1.6l3,3.2c1.1,1,2.2,2,3.3,3l1.7,1.5,1.8,1.3Z"/>
        </g>
        <g>
          <path class="st10" d="M98,330.9l5,8.7c4.7-2.7,9.5-5.2,14.5-7.7l-4.4-9c-5.2,2.5-10.2,5.2-15.1,8Z"/>
          <path class="st10" d="M72.7,348.3l6.5,7.7c4-3.4,8.3-6.6,12.8-9.6l-5.6-8.4c-4.7,3.2-9.3,6.6-13.7,10.3Z"/>
          <path class="st10" d="M52.6,372l8.8,4.8c2.4-4.4,5.4-8.5,8.9-12.3l-7.5-6.7c-3.8,4.3-7.4,9-10.2,14.2Z"/>
        </g>
        <g>
          <polygon class="st10" points="181.7 295.5 185 305 200.8 299.6 197.6 290.1 181.7 295.5"/>
          <path class="st10" d="M153.3,305.7l3.6,9.4c5.2-2,10.4-3.9,15.6-5.7l-3.4-9.5c-5.3,1.9-10.5,3.8-15.8,5.8Z"/>
          <path class="st10" d="M125.4,317.1l4.1,9.2c5-2.2,10.1-4.4,15.2-6.5l-3.8-9.3c-5.2,2.1-10.4,4.3-15.5,6.6Z"/>
        </g>
        <g>
          <path class="st10" d="M261.1,258.8l7.5,6.8c1-1.1,2-2.3,2.9-3.5,1-1.2,1.9-2.3,2.8-3.6l2.6-3.7c.8-1.3,1.5-2.6,2.3-3.9l-8.7-5c-.7,1.1-1.3,2.3-2,3.4l-2.3,3.3c-.7,1.1-1.6,2.1-2.4,3.2-1,.9-1.7,2-2.7,3Z"/>
          <path class="st10" d="M238.2,275.6l4.3,9.1,4-2c1.3-.7,2.6-1.5,3.9-2.3l1.9-1.2,1-.6.9-.7,3.7-2.7-6.1-8-3.2,2.4-.8.6-.9.5-1.7,1c-1.2.7-2.3,1.4-3.4,2l-3.6,1.9Z"/>
          <polygon class="st10" points="210.4 285.8 213.6 295.3 229.6 289.9 226.3 280.4 210.4 285.8"/>
        </g>
        <g>
          <path class="st10" d="M282.9,176.5l10-.8c-.4-5.8-1.1-11.5-2.1-17.3l-9.9,1.7c.9,5.5,1.6,10.9,2,16.4Z"/>
          <path class="st10" d="M282.6,205.9l10,1.1c.7-5.8.9-11.6.9-17.4h-10.1c0,5.4-.2,10.9-.8,16.3Z"/>
          <path class="st10" d="M276.1,234.1l9.4,3.6c2.1-5.6,3.8-11.3,5-17.1l-9.8-2.1c-1.2,5.4-2.8,10.6-4.6,15.6Z"/>
        </g>
      </g>
      <g>
        <path class="st0" d="M208.3,129l41,10.8L365.1,0l-156.8,129Z"/>
        <path class="st13" d="M293,190.6l-43.7-50.9L365.1,0l-78.8,148.4,6.7,42.2Z"/>
        <path class="st0" d="M352,161.4l-65.7-13.1L365.1,0l-13.1,161.4Z"/>
      </g>
    </g>
    <g>
      <g>
        <path class="st12" d="M1099.5,772s-173.7-130.9-162.9-366.2,204.4-347.8,204.4-347.8c0,0,142.3,125.3,157.1,366.9,14.8,241.6-198.6,347.1-198.6,347.1Z"/>
        <polygon class="st8" points="1298.1 476.4 1299.3 461.2 1114.9 572 1128.6 336.6 1263.4 254.9 1259.5 243.3 1129.4 322.6 1144.6 61 1141.4 57.9 1133 62.3 1124.1 215.2 1041.4 145.3 1034 154 1123.3 229.6 1110.6 449.1 943.1 347.8 940.8 361.7 1109.8 462.1 1092.1 766.8 1099.5 772 1103.4 770.3 1114.1 585.8 1298.1 476.4"/>
      </g>
      <g>
        <path class="st18" d="M1093.9,758.2s-78.6-202.8,54.6-397.1c133.2-194.3,356.9-187.9,356.9-187.9,0,0,55,181.5-59.8,394.6s-351.7,190.4-351.7,190.4Z"/>
        <polygon class="st8" points="1418.5 611.7 1427.5 599.3 1212.4 596.4 1348.1 403.5 1505.7 405.1 1508.5 393.2 1356.1 392.1 1506.9 177.7 1505.8 173.4 1496.4 172.7 1408.2 298 1374.8 194.9 1363.8 198.5 1400 309.7 1273.4 489.6 1184.5 315.3 1175.2 325.9 1266 500.2 1090.4 749.9 1093.9 758.2 1098.1 758.8 1204.4 607.7 1418.5 611.7"/>
      </g>
      <g>
        <path class="st2" d="M1098,766.7s-215.4-29.9-320.5-240.7,9.3-403.3,9.3-403.3c0,0,185.3,40.2,315.8,244,130.3,204-4.6,400-4.6,400Z"/>
        <polygon class="st8" points="1127.7 411.9 1121.3 398 1014.2 584.5 911.5 372.2 989.6 235.3 980.4 227 905.5 359.6 791.4 123.7 787.1 122.6 781.9 130.4 848.6 268.4 742.2 247.5 740 258.8 854.8 281.3 950.5 479.3 755 472.3 759.7 485.5 956.2 491 1089 765.8 1098 766.7 1100.6 763.4 1020.2 597 1127.7 411.9"/>
      </g>
    </g>
    <g>
      <rect class="st9" x="618.8" y="554.4" width="1014.7" height="624.4"/>
      <path class="st13" d="M1621.6,476.4h-991c-49.6,0-89.9,40.2-89.9,89.7v710.4c0,10.8,8.7,19.5,19.5,19.5h1131.8c10.8,0,19.5-8.7,19.5-19.5v-710.5c0-49.4-40.3-89.6-89.9-89.6ZM618.8,1159.3v-585.4c0-10.8,8.7-19.5,19.5-19.5h975.7c10.8,0,19.5,8.7,19.5,19.5v585.4c0,10.8-8.7,19.5-19.5,19.5h-975.7c-10.8,0-19.5-8.7-19.5-19.5Z"/>
      <path class="st0" d="M1731,1256.9H521.2c-10.8,0-19.5,8.7-19.5,19.5h0c0,43.1,35,78.1,78.1,78.1h1092.6c43.1,0,78.1-35,78.1-78.1h0c0-10.8-8.7-19.5-19.5-19.5Z"/>
    </g>
    <g>
      <path class="st9" d="M124.2,1172.6h456.6c34.3,0,62.1-27.8,62.1-62.1v-63c0-34.3-27.8-62.1-62.1-62.1H124.2v187.2h0Z"/>
      <g>
        <rect class="st0" x="124.2" y="1004.8" width="502.4" height="6.3"/>
        <rect class="st0" x="124.2" y="1025.4" width="502.4" height="6.3"/>
        <rect class="st0" x="124.2" y="1046" width="521.3" height="6.3"/>
        <rect class="st0" x="124.2" y="1066.6" width="521.3" height="6.3"/>
        <rect class="st0" x="124.2" y="1087.2" width="521.3" height="6.3"/>
        <rect class="st0" x="124.2" y="1107.8" width="521.3" height="6.3"/>
        <rect class="st0" x="124.2" y="1128.4" width="502.4" height="6.3"/>
        <rect class="st0" x="124.2" y="1149" width="502.4" height="6.3"/>
      </g>
      <path class="st13" d="M119.3,974.7h434.9c57.6,0,104.8,47.2,104.8,104.8h0c0,57.6-47.2,104.8-104.8,104.8H119.3c-5.2,0-9.5-4.2-9.5-9.5v-1.1c0-5.2,4.2-9.5,9.5-9.5l433,.3c47,0,85.2-38.1,85.2-85.1h0c0-47-38-85.1-85-85.1l-433.2-.6c-5.2,0-9.5-4.2-9.5-9.5h0c0-5.3,4.3-9.5,9.5-9.5Z"/>
      <polygon class="st20" points="582.6 1066.6 518.1 1066.6 518.4 1186.1 561.9 1157.7 599.9 1186.1 599.9 1066.6 582.6 1066.6"/>
    </g>
    <g>
      <path class="st9" d="M603.5,1382.6H146.9c-34.3,0-62.1-27.8-62.1-62.1v-63c0-34.3,27.8-62.1,62.1-62.1h456.6v187.2Z"/>
      <g>
        <rect class="st0" x="101.1" y="1214.8" width="502.4" height="6.3"/>
        <rect class="st0" x="101.1" y="1235.4" width="502.4" height="6.3"/>
        <rect class="st0" x="82.2" y="1256" width="521.3" height="6.3"/>
        <rect class="st0" x="82.2" y="1276.6" width="521.3" height="6.3"/>
        <rect class="st0" x="82.2" y="1297.2" width="521.3" height="6.3"/>
        <rect class="st0" x="82.2" y="1317.8" width="521.3" height="6.3"/>
        <rect class="st0" x="101.1" y="1338.4" width="502.4" height="6.3"/>
        <rect class="st0" x="101.1" y="1359" width="502.4" height="6.3"/>
      </g>
      <path class="st13" d="M608.4,1184.6H173.5c-57.6,0-104.8,47.2-104.8,104.8h0c0,57.6,47.2,104.8,104.8,104.8h434.9c5.2,0,9.5-4.2,9.5-9.5v-1.1c0-5.2-4.2-9.5-9.5-9.5l-433,.3c-47,0-85.2-38.1-85.2-85.1h0c0-47,38-85.1,85-85.1l433.2-.6c5.2,0,9.5-4.2,9.5-9.5h0c-.1-5.2-4.3-9.5-9.5-9.5Z"/>
      <polygon class="st20" points="145.1 1276.6 209.6 1276.6 209.3 1396 165.8 1367.7 127.8 1396 127.8 1276.6 145.1 1276.6"/>
    </g>
    <g>
      <path class="st6" d="M269.6,844.8l-5.8,26.9c-1.8,8.3,1.1,16.9,7.6,22.4l21.2,17.9,13.5-11-14.3-22.2,8.7-20.6-30.9-13.4Z"/>
      <path class="st6" d="M392.4,856.7l27.7-11.9,7,27.8c2.1,8.2-.6,16.9-6.8,22.6l-21.5,19.6v-36.4l-6.4-21.7Z"/>
      <path class="st11" d="M329.8,799.6l15.1,21.4,11.9-21.4,26.7,2.5c9.5.9,18,6.6,22.4,15.1l14.3,27.6-27.7,11.9,6.3,15.8v42.3l-56.3,26.2-35.7-20.2-15.1-42,8.7-20.6-30.9-13.5,18.3-29.2c4.4-7.1,11.8-11.8,20.1-12.9l21.9-3Z"/>
      <polygon class="st0" points="284.7 920.9 284.7 872.5 406.7 872.5 406.7 920.9 342.5 941.1 284.7 920.9"/>
      <path class="st13" d="M402.7,974.7s-122-13.5-164.8-35.7,3.2-43.6,42.8-30.9c39.6,12.7,122,43.6,122,43.6v23Z"/>
      <path class="st13" d="M290.2,974.7l-2.9-19.3s139.9-63.8,178-44c38.1,19.8-63.4,56.2-175.1,63.3Z"/>
      <path class="st14" d="M287.5,955.3l2.8,19.4s-50.3,6.3-54.3,4.4c-4-2-17-10.7-8.7-19,8.3-8.3,48.7-8.7,60.2-4.8Z"/>
      <path class="st14" d="M404.4,957.3l-2.8,18.6s50.3,6.3,54.3,4.4c4-2,17-10.7,8.7-19-8.3-8.4-48.7-8-60.2-4Z"/>
      <polygon class="st17" points="329.8 799.6 344.9 825.4 356.8 799.6 356.8 781.4 329.8 781.4 329.8 799.6"/>
      <path class="st6" d="M337.4,792s-18.7-11.8-20.8-26.4c-2.1-14.5-2.1-26.5,2.8-27.6s37.5-8.6,39.4-7.6,8.6,19.5,8.9,26.4c.6,13.6-13.8,34.1-18,36.4-4.3,2.3-12.3-1.2-12.3-1.2Z"/>
      <path class="st14" d="M316.9,767.2s-7.3-10-8.5-21.5,4-22.5,8.3-24.6c24.6-11.9,34.1,3.2,55.1-4.8,0,0-1.9,9.1-4,14.7-4,10.7-1.4,19.1-1.4,19.1,0,0-6.5-10.3-12.1-11.9s-26.1,5.2-30.9,0c.1,0-9.5,1.4-6.5,29Z"/>
    </g>
    <g>
      <polygon class="st0" points="1873 1258.6 1908.1 1393.1 2014.9 1393.1 2047.2 1258.6 1873 1258.6"/>
      <path class="st2" d="M2043.9,1094.9c0-14.1-7-27.2-18.6-35,12.7-15.9,10.2-39.2-5.8-51.9-6.6-5.2-14.7-8.1-23.1-8.1s-1.1,0-1.6,0c5.9-19.5-5.1-40.2-24.7-46.1-19.5-5.9-40.2,5.1-46.1,24.7-2.1,7-2.1,14.4,0,21.4-.5,0-1.1,0-1.6,0-20.4,0-36.9,16.5-37,36.9,0,8.4,2.8,16.5,8.1,23.1-19.3,13-24.5,39.3-11.5,58.6,3,4.5,6.9,8.4,11.5,11.5-12.7,15.9-10.2,39.2,5.8,51.9,6.6,5.2,14.7,8.1,23.1,8.1h73.9c20.4,0,36.9-16.5,37-36.9,0-8.4-2.8-16.5-8.1-23.1,11.7-7.9,18.7-21,18.7-35.1Z"/>
      <path class="st13" d="M2000.2,1070.1c-2.1-2.1-5.4-2.1-7.5,0l-27.9,27.9v-77c0-2.9-2.4-5.3-5.3-5.3s-5.3,2.4-5.3,5.3v37.4l-24-24c-2.1-2-5.4-2-7.5,0s-2,5.3,0,7.3l31.4,31.4v72.2l-22.7-22.7c-2.1-2-5.4-2-7.5,0s-2,5.3,0,7.3l30.1,30.1v98.1c0,2.9,2.4,5.3,5.3,5.3s5.3-2.4,5.3-5.3v-146c.4-.2.8-.4,1.1-.7l34.3-34.3c2.2-1.8,2.2-5.1.2-7.2h0Z"/>
      <path class="st13" d="M2049.2,1263.9h-179.5c-2.9,0-5.3-2.4-5.3-5.3s2.4-5.3,5.3-5.3h179.5c2.9,0,5.3,2.4,5.3,5.3s-2.4,5.3-5.3,5.3Z"/>
    </g>
  </g>
  <g id="Layer_2">
    <g id="Layer_1-2">
      <g class="st19">
        <g>
          <path class="st3" d="M1158.6,756c-1.5-.6-3.2-1.2-4.4-2-2.4-1.7-2.6-3.9-1.4-6s3.5-3.4,6.7-3.5c4.6-.1,9.1,0,13.7,0,2.1,0,4.1.7,5.7,2,.5.5,1.3.6,2,.5,3.7-.3,7.4-1.1,10.9-2.3,8.2-2.9,12-7.8,12.6-14.1,0-.7,0-1.4,0-2.2-1.1,0-2-.1-3,0-6.7.4-6.7-3.6-6.6-8.7,0-7.9,0,.2,0-7.7,0-3.3,0-6.6.2-9.9.3-3.7-.5-6.9,4.8-7.2,1.5,0,3.1,0,5,0-.4-1.8-.6-3.4-1.1-5-1.3-4.4-3.5-20.6-6.7-24.6-3.1-3.8-6.9-7.1-11-9.8-4.3-2.8-8.9-5-13.8-6.5-4.2-1.4-8.6-2.3-13-2.9-7.9-1-15.9-.6-23.6,1.1-5.7,1.2-11.3,3.3-16.4,6.1-8.1,4.5-14.1,10.1-18.1,16.8-2.1,3.5-3.4,19.2-4.1,23,0,.5-.1,1-.2,1.7h4.5c4,0,2.2,1,4.8,3.2,1.6,1.3,2.6,3.4,2.6,5.5,0,10.8,0,5.5,0,16.2,0,5.2,0,8.7-7.4,8.7s-9.2,0-13.8-.2c-5-.2-6.1-3.4-6.6-7-.1-.6-.2-1.2-.2-1.8v-15.9c0-2.3,1-4.5,2.8-5.9,2.3-1.9,1.7-2.9,5.1-2.9,1.4,0,1.8-.4,1.9-1.3.7-5.6,2.9-22.9,6.4-27.9,5.5-7.9,13.5-14.2,24.1-18.8,8-3.4,16.6-5.4,25.3-5.8.3,0,.7-.1,1-.2h6.7c1.9.2,3.9.4,5.8.6,8.7.9,17.1,3.4,24.9,7.4,6.1,3,11.6,7.2,16.2,12.2,2.7,3,5,6.3,6.8,9.9,1.7,3.5,2.9,19.2,3.4,22.9,0,.6.5.9,1.5.9,1.4,0,2.8,0,4.2.3,5.8,1.2,4.9,4.2,4.9,8.5v16c0,5.1-.4,8.4-7.5,8.9-1.1,0-2.6,0-3.1.3s-.2,1.5-.3,2.3c-.7,7.4-5.1,13.2-14.2,17.1-4.5,1.9-9.4,2.8-14.6,3.4-.5,0-1.2.2-1.3.4-1.1,2.2-3.4,3.4-6.4,4.1h-15.6Z"/>
          <path class="st4" d="M1201.7,852.9v56.3c0,3-.3,5.9-2.5,8.2-2.8,3.1-6.5,2.9-8.8-.5-1.4-2.1-2.2-4.6-2.2-7.1,0-38.1,0-76.2,0-114.2v-1.3c.3-5.1,3.2-8.6,6.8-8.5s6.5,3.8,6.6,8.8c0,17.4,0,34.7,0,52.1v6.3Z"/>
          <path class="st4" d="M1272.3,852.5v-56.3c0-2.9.3-5.6,2-8,2.5-3.5,6.6-3.6,9.1-.2,1.6,2.3,2.5,5.1,2.3,7.9,0,37.8,0,75.6,0,113.4,0,5.9-2.8,10-6.6,10.1-4.3,0-6.8-3.7-6.8-10.2,0-18.9,0-37.8,0-56.7"/>
          <path class="st4" d="M1180.5,852.8c0,13.7,0,27.4,0,41.1,0,5-2.8,8.4-6.8,8.5-3.7.1-6.6-2.9-7.2-7.8-.1-1.3-.1-2.5,0-3.8v-70.1c0-3.4-.2-6.7.1-10.1.6-6.6,5.9-9.8,10.6-6.7,2.9,1.9,3.4,4.9,3.4,8.1v40.7"/>
          <path class="st4" d="M1250.5,852.6v-39.9c0-2,.2-3.9.9-5.8,1-2.7,3.8-4.4,6.6-4.1,2.8,0,5.2,2,5.7,4.7.6,2.2.9,4.4.9,6.6,0,25.6,0,51.2,0,76.8,0,2.2-.4,4.5-.9,6.6-.5,2.7-2.9,4.7-5.7,4.7-2.9.3-5.6-1.4-6.6-4.1-.7-1.8-1-3.8-.9-5.7,0-13.3,0-26.6,0-39.9"/>
          <path class="st4" d="M1293.3,852.6c0-13.7,0-27.5,0-41.2,0-5.7,2.1-8.6,6.3-8.7s7.1,3.4,7.1,8.7c0,15.1,0,30.3,0,45.4v36.6c0,3.4-.7,6.5-4,8.2-4.9,2.5-9.4-.6-9.5-6.6,0-14.2,0-28.3,0-42.4"/>
          <path class="st4" d="M1222.7,852.6v41.6c0,3.2-1.1,5.8-4,7.3-2.1,1.3-4.8,1.1-6.7-.5-2.5-1.9-2.9-4.6-2.9-7.5,0-15.8,0-31.7,0-47.5v-33.6c0-6.4,2.4-9.8,6.8-9.7,4.1,0,6.7,4,6.7,10v40"/>
          <path class="st4" d="M1313.6,852.2c0-8.1,0-16.2,0-24.3,0-6.5,4-9.3,10.2-7.4,2.9.9,3.8,3.3,3.8,5.9,0,17.5,0,35,0,52.4,0,4.3-2.7,6.3-7.2,6.3-4.9,0-6.8-1.6-6.8-6.4-.1-8.8,0-17.6,0-26.4"/>
          <path class="st4" d="M1159.6,852.7v25.6c0,5.2-1.9,6.9-7.3,6.8-4.7,0-6.1-1.6-6.1-6.9v-51.2c0-5.2,1.5-6.7,6.2-6.8,5.3,0,7.2,1.7,7.2,6.9,0,8.5,0,17.1,0,25.6"/>
          <path class="st4" d="M1136,851.4v20.8c0,4.2-1.6,5.6-5.9,5.5-3.9,0-5-1.3-5-5.6,0-13.9,0-27.7,0-41.6,0-4.2,1.2-5.5,5.1-5.5,4.3,0,5.8,1.3,5.9,5.6v20.8"/>
          <path class="st4" d="M1243.7,852.9v25.2c0,5.2-1.9,7-7.1,7-4.8,0-6.3-1.6-6.3-6.7v-51.6c0-5.1,1.5-6.5,6.4-6.5s6.9,1.8,7,6.7c0,8.7,0,17.4,0,26"/>
          <polygon class="st5" points="1008.9 807.5 1008.9 700.3 970.6 700.3 970.6 678.5 1073.1 678.5 1073.1 700.3 1035 700.3 1035 807.5 1008.9 807.5"/>
          <path class="st5" d="M1172.5,760l25.3,8c-3.9,14.1-10.3,24.5-19.3,31.4-9,6.8-20.4,10.2-34.3,10.2-17.1,0-31.2-5.9-42.2-17.6-11-11.7-16.5-27.7-16.5-48,0-21.5,5.5-38.1,16.6-50,11.1-11.9,25.7-17.8,43.7-17.8,15.8,0,28.6,4.7,38.4,14,5.8,5.5,10.2,13.4,13.2,23.8l-25.8,6.2c-1.5-6.7-4.7-12-9.6-15.8-4.8-3.9-10.7-5.8-17.6-5.8-9.6,0-17.3,3.4-23.3,10.3-6,6.9-8.9,18-8.9,33.3,0,16.3,2.9,27.9,8.8,34.8,5.9,6.9,13.5,10.4,22.9,10.4,6.6.1,13-2.2,17.9-6.6,5-4.4,8.6-11.3,10.7-20.8"/>
          <rect class="st5" x="1222.6" y="678.5" width="26" height="129"/>
          <path class="st4" d="M986.7,849.6v56.3c0,3-.3,5.9-2.5,8.2-2.8,3.1-6.5,2.9-8.8-.5-1.4-2.1-2.2-4.6-2.2-7.1,0-38.1,0-76.2,0-114.2v-1.3c.3-5.1,3.2-8.6,6.9-8.5s6.5,3.8,6.6,8.8c0,17.4,0,34.7,0,52.1v6.3Z"/>
          <path class="st4" d="M1057.3,849.2v-56.3c0-2.9.3-5.6,2-8,2.5-3.5,6.6-3.6,9.1-.2,1.6,2.3,2.4,5.1,2.3,7.9,0,37.8,0,75.6,0,113.4,0,5.9-2.8,10-6.6,10.1-4.3,0-6.8-3.7-6.8-10.2,0-18.9,0-37.8,0-56.7"/>
          <path class="st4" d="M965.6,849.4c0,13.7,0,27.4,0,41.1,0,5-2.8,8.4-6.8,8.5-3.7.1-6.6-2.9-7.2-7.8-.1-1.3-.1-2.5,0-3.8v-70.1c0-3.4-.2-6.7,0-10.1.6-6.6,5.9-9.8,10.6-6.7,2.9,1.9,3.4,4.9,3.4,8.1v40.7"/>
          <path class="st4" d="M1035.6,849.2v-39.9c0-2,.2-3.9.9-5.7,1-2.7,3.8-4.4,6.6-4.1,2.8,0,5.2,2,5.7,4.7.6,2.2.9,4.4.9,6.6,0,25.6,0,51.2,0,76.8,0,2.2-.4,4.4-.9,6.6-.5,2.7-2.9,4.7-5.7,4.7-2.9.3-5.6-1.4-6.6-4.1-.7-1.8-1-3.8-.9-5.8,0-13.3,0-26.6,0-39.9"/>
          <path class="st4" d="M1078.4,849.2v-41.2c0-5.7,2.1-8.6,6.3-8.7s7.1,3.4,7.1,8.7c0,15.1,0,30.3,0,45.4,0,12.2,0,24.4,0,36.6,0,3.4-.7,6.5-4,8.2-4.9,2.5-9.4-.6-9.5-6.6,0-14.2,0-28.3,0-42.4"/>
          <path class="st4" d="M1007.8,849.2v41.6c0,3.2-1.1,5.8-4,7.3-2.1,1.3-4.8,1.1-6.7-.5-2.5-1.9-2.9-4.6-2.9-7.5,0-15.8,0-31.7,0-47.5v-33.6c0-6.4,2.4-9.8,6.8-9.7,4.1,0,6.7,4,6.7,10v40"/>
          <path class="st4" d="M1098.7,848.8c0-8.1,0-16.2,0-24.3,0-6.5,4-9.3,10.2-7.4,2.9.9,3.8,3.2,3.8,5.9,0,17.5.1,35,0,52.4,0,4.3-2.7,6.3-7.2,6.3-4.9,0-6.8-1.6-6.8-6.4-.1-8.8,0-17.6,0-26.4"/>
          <path class="st4" d="M944.6,849.3c0,8.5,0,17.1,0,25.6,0,5.2-1.9,6.9-7.3,6.8-4.7,0-6.1-1.6-6.1-6.9v-51.2c0-5.2,1.5-6.7,6.2-6.8,5.3,0,7.2,1.7,7.2,6.9v25.6"/>
          <path class="st4" d="M1028.8,849.5v25.2c0,5.2-1.9,7-7.1,7-4.8,0-6.3-1.6-6.3-6.7v-51.6c0-5.1,1.5-6.5,6.4-6.5,5.1,0,6.9,1.7,7,6.7,0,8.7,0,17.4,0,26"/>
        </g>
      </g>
    </g>
  </g>
  <g>
    <path class="st14" d="M1000,1161.7s-12.2,98.2-8.1,147.9c4.1,49.6,8.1,95.2,8.1,95.2h20.3l7.6-128.1,17.7-42,5.3,41.2c1.7,13.4,10.5,24.8,22.9,30l91.3,38.2,9.1-16.2-77.6-54c-3.4-2.4-5.6-6.2-5.8-10.4l-5.7-93.7-85.1-8.1Z"/>
    <path class="st1" d="M944.8,974.9l15.2-18.2s56.7,30.4,65.8,37.5c9.1,7.1,64.8,15.2,77,43.5,12.2,28.4,29.4,67.9,29.4,67.9l-23.3,14.2-25.8-40,2,90.1s-44.6,28.4-85.1-8.1l-2-124.6-53.2-62.3Z"/>
    <path class="st6" d="M944.3,974.4l-15.2-18.2,21.3-78s-1-17.2,6.1-23.3,11.1-8.1,16.2-5.1-11.1,10.1-6.1,19.2c0,0,6.1-3,7.1-6.1,1-3,7.1-1,4.1,4.1s-13.2,15.2-13.2,15.2l-13.2,62.8,8.1,11.1-15.2,18.3Z"/>
    <path class="st6" d="M1108.3,1119.2l46.6,64.8s3,7.1,11.1,8.1,11.1,7.1,13.2,12.2c2,5.1,8.1,8.1,6.1-7.1s-13.2-20.3-19.2-21.3l-34.4-70.9-23.4,14.2Z"/>
    <path class="st14" d="M1019.3,1062.6c-5,3.3-11.5,3.5-16.9.9-10.3-4.9-23.7-12.8-23.7-20.3,0-12.2-1-24.3,17.2-33.4,18.2-9.1,34.4-27.3,39.5-47.6s9.1-35.4,22.3-37.5c13.2-2,37.5,2,38.5,23.3s-5.1,74.9-15.2,93.2c-10.1,18.2-15.2,43.5-32.4,38.5-17.2-5.1-10.1-13.2-14.2-16.2-3-2.3-9.5-4.6-15.1-.9Z"/>
    <path class="st16" d="M1000,1404.8l-9.9,10.6c-1.6,1.7-.4,4.6,2,4.6h25.5c1.5,0,2.7-1.2,2.7-2.7v-12.5h-20.3Z"/>
    <path class="st16" d="M1165,1344v12.5c0,2.6,3.2,3.7,4.8,1.7l17.2-21.5c1.1-1.4.6-3.5-1.1-4.2l-11.8-4.7-9.1,16.2Z"/>
  </g>
  <g>
    <circle class="st9" cx="1640.2" cy="1213.4" r="171.5"/>
    <circle class="st13" cx="1640.2" cy="1213.4" r="99"/>
    <path class="st13" d="M1534.7,1398.1c-1.7,0-3.4-.6-4.7-1.9-2.6-2.6-2.6-6.8,0-9.3l25.9-25.9c2.6-2.6,6.8-2.6,9.3,0,2.6,2.6,2.6,6.8,0,9.3l-25.9,25.9c-1.2,1.3-2.9,1.9-4.6,1.9Z"/>
    <path class="st13" d="M1745.8,1398.1c-1.7,0-3.4-.6-4.7-1.9l-26.1-26.1c-2.6-2.6-2.6-6.8,0-9.3s6.8-2.6,9.3,0l26.1,26.1c2.6,2.6,2.6,6.8,0,9.3-1.2,1.3-2.9,1.9-4.6,1.9Z"/>
    <path class="st13" d="M1759.6,1096.1c-1.7,0-3.4-.6-4.7-1.9-2.6-2.6-2.6-6.8,0-9.3l19.8-19.8c2.6-2.6,6.7-2.6,9.3,0s2.6,6.8,0,9.3l-19.8,19.8c-1.2,1.2-2.9,1.9-4.6,1.9Z"/>
    <path class="st13" d="M1520.9,1096.1c-1.7,0-3.4-.6-4.7-1.9l-19.8-19.8c-2.6-2.6-2.6-6.8,0-9.3,2.6-2.6,6.8-2.6,9.3,0l19.8,19.8c2.6,2.6,2.6,6.8,0,9.3-1.2,1.2-2.9,1.9-4.6,1.9Z"/>
    <path class="st20" d="M1640.3,1398.1c-101.9,0-184.7-82.9-184.7-184.7s82.9-184.7,184.7-184.7,184.7,82.9,184.7,184.7-82.9,184.7-184.7,184.7ZM1640.3,1055.1c-87.3,0-158.3,71-158.3,158.3s71,158.3,158.3,158.3,158.3-71,158.3-158.3c0-87.3-71-158.3-158.3-158.3Z"/>
    <g>
      <path class="st13" d="M1640.3,1060.9c-3.6,0-6.6,2.9-6.6,6.6v6.6c0,3.6,3,6.6,6.6,6.6s6.6-2.9,6.6-6.6v-6.6c0-3.7-3-6.6-6.6-6.6Z"/>
      <path class="st13" d="M1640.3,1344.6c-3.6,0-6.6,2.9-6.6,6.6v6.6c0,3.6,3,6.6,6.6,6.6s6.6-2.9,6.6-6.6v-6.6c0-3.7-3-6.6-6.6-6.6Z"/>
      <path class="st13" d="M1785.4,1206h-6.6c-3.6,0-6.6,2.9-6.6,6.6s3,6.6,6.6,6.6h6.6c3.6,0,6.6-2.9,6.6-6.6s-2.9-6.6-6.6-6.6Z"/>
      <path class="st13" d="M1501.7,1206h-6.6c-3.6,0-6.6,2.9-6.6,6.6s3,6.6,6.6,6.6h6.6c3.6,0,6.6-2.9,6.6-6.6,0-3.6-2.9-6.6-6.6-6.6Z"/>
      <path class="st13" d="M1738.2,1105.3l-4.7,4.7c-2.6,2.6-2.6,6.8,0,9.3,1.3,1.3,3,1.9,4.7,1.9s3.4-.6,4.7-1.9l4.7-4.7c2.6-2.6,2.6-6.7,0-9.3s-6.8-2.6-9.4,0Z"/>
      <path class="st13" d="M1537.6,1305.9l-4.7,4.7c-2.6,2.6-2.6,6.8,0,9.3,1.3,1.3,3,1.9,4.7,1.9s3.4-.6,4.7-1.9l4.7-4.7c2.6-2.6,2.6-6.8,0-9.3-2.6-2.6-6.8-2.6-9.4,0Z"/>
      <path class="st13" d="M1742.9,1305.9c-2.6-2.6-6.8-2.6-9.3,0-2.6,2.6-2.6,6.8,0,9.3l4.7,4.7c1.3,1.3,3,1.9,4.7,1.9s3.4-.6,4.7-1.9c2.6-2.6,2.6-6.8,0-9.3l-4.8-4.7Z"/>
      <path class="st13" d="M1542.3,1105.3c-2.6-2.6-6.8-2.6-9.3,0-2.6,2.6-2.6,6.8,0,9.3l4.7,4.7c1.3,1.3,3,1.9,4.7,1.9s3.4-.6,4.7-1.9c2.6-2.6,2.6-6.8,0-9.3l-4.8-4.7Z"/>
    </g>
    <path class="st9" d="M1561.1,1213.4c0,3.6,2.9,6.6,6.6,6.6h47.1c2.9,11.4,13.2,19.8,25.5,19.8s26.4-11.8,26.4-26.4-8.4-22.5-19.8-25.5v-66.9c0-3.6-3-6.6-6.6-6.6s-6.6,2.9-6.6,6.6v66.9c-9.2,2.4-16.5,9.6-18.9,18.9h-47.1c-3.7,0-6.6,3-6.6,6.6ZM1627.1,1213.4c0-7.3,5.9-13.2,13.2-13.2s13.2,5.9,13.2,13.2-5.9,13.2-13.2,13.2-13.2-5.9-13.2-13.2Z"/>
    <path class="st13" d="M1811.2,1034.8c18.3,18.3,18.3,48.1,0,66.4l-66.5-66.4c18.4-18.4,48.2-18.4,66.5,0Z"/>
    <path class="st13" d="M1469.3,1034.8c-18.3,18.3-18.3,48.1,0,66.4l66.4-66.4c-18.3-18.4-48.1-18.4-66.4,0Z"/>
  </g>
</svg>